<mxfile host="app.diagrams.net" modified="2022-05-19T15:57:11.322Z" agent="5.0 (Windows NT 10.0; Win64; x64) AppleWebKit/537.36 (KHTML, like Gecko) Chrome/101.0.4951.67 Safari/537.36" etag="_Y_lVtiL9s0O-mn54nlq" version="18.0.2" type="github">
  <diagram id="5dNm-db4SnpCI-d1yvFE" name="Page-1">
    <mxGraphModel dx="1240" dy="743" grid="1" gridSize="10" guides="1" tooltips="1" connect="1" arrows="1" fold="1" page="1" pageScale="1" pageWidth="827" pageHeight="1169" math="0" shadow="0">
      <root>
        <mxCell id="0" />
        <mxCell id="1" parent="0" />
        <mxCell id="A_5fuHN3O4RCUiWuTSh4-4" value="Usuario" style="swimlane;fontStyle=0;childLayout=stackLayout;horizontal=1;startSize=26;fillColor=none;horizontalStack=0;resizeParent=1;resizeParentMax=0;resizeLast=0;collapsible=1;marginBottom=0;" vertex="1" parent="1">
          <mxGeometry x="90" y="230" width="140" height="130" as="geometry" />
        </mxCell>
        <mxCell id="A_5fuHN3O4RCUiWuTSh4-7" value="+ Nombre: String" style="text;strokeColor=none;fillColor=none;align=left;verticalAlign=top;spacingLeft=4;spacingRight=4;overflow=hidden;rotatable=0;points=[[0,0.5],[1,0.5]];portConstraint=eastwest;" vertex="1" parent="A_5fuHN3O4RCUiWuTSh4-4">
          <mxGeometry y="26" width="140" height="26" as="geometry" />
        </mxCell>
        <mxCell id="A_5fuHN3O4RCUiWuTSh4-5" value="+ Correo: String" style="text;strokeColor=none;fillColor=none;align=left;verticalAlign=top;spacingLeft=4;spacingRight=4;overflow=hidden;rotatable=0;points=[[0,0.5],[1,0.5]];portConstraint=eastwest;" vertex="1" parent="A_5fuHN3O4RCUiWuTSh4-4">
          <mxGeometry y="52" width="140" height="26" as="geometry" />
        </mxCell>
        <mxCell id="A_5fuHN3O4RCUiWuTSh4-6" value="+ Telefono: String" style="text;strokeColor=none;fillColor=none;align=left;verticalAlign=top;spacingLeft=4;spacingRight=4;overflow=hidden;rotatable=0;points=[[0,0.5],[1,0.5]];portConstraint=eastwest;" vertex="1" parent="A_5fuHN3O4RCUiWuTSh4-4">
          <mxGeometry y="78" width="140" height="26" as="geometry" />
        </mxCell>
        <mxCell id="A_5fuHN3O4RCUiWuTSh4-10" value="+ Contrasena: String" style="text;strokeColor=none;fillColor=none;align=left;verticalAlign=top;spacingLeft=4;spacingRight=4;overflow=hidden;rotatable=0;points=[[0,0.5],[1,0.5]];portConstraint=eastwest;" vertex="1" parent="A_5fuHN3O4RCUiWuTSh4-4">
          <mxGeometry y="104" width="140" height="26" as="geometry" />
        </mxCell>
        <mxCell id="A_5fuHN3O4RCUiWuTSh4-11" value="TipoServicio" style="swimlane;fontStyle=0;childLayout=stackLayout;horizontal=1;startSize=26;fillColor=none;horizontalStack=0;resizeParent=1;resizeParentMax=0;resizeLast=0;collapsible=1;marginBottom=0;" vertex="1" parent="1">
          <mxGeometry x="620" y="230" width="140" height="52" as="geometry" />
        </mxCell>
        <mxCell id="A_5fuHN3O4RCUiWuTSh4-12" value="+ TipoServicio: String" style="text;strokeColor=none;fillColor=none;align=left;verticalAlign=top;spacingLeft=4;spacingRight=4;overflow=hidden;rotatable=0;points=[[0,0.5],[1,0.5]];portConstraint=eastwest;" vertex="1" parent="A_5fuHN3O4RCUiWuTSh4-11">
          <mxGeometry y="26" width="140" height="26" as="geometry" />
        </mxCell>
        <mxCell id="A_5fuHN3O4RCUiWuTSh4-16" value="Servicios" style="swimlane;fontStyle=0;childLayout=stackLayout;horizontal=1;startSize=26;fillColor=none;horizontalStack=0;resizeParent=1;resizeParentMax=0;resizeLast=0;collapsible=1;marginBottom=0;" vertex="1" parent="1">
          <mxGeometry x="450" y="230" width="140" height="364" as="geometry" />
        </mxCell>
        <mxCell id="A_5fuHN3O4RCUiWuTSh4-25" value="+ ID: String" style="text;strokeColor=none;fillColor=none;align=left;verticalAlign=top;spacingLeft=4;spacingRight=4;overflow=hidden;rotatable=0;points=[[0,0.5],[1,0.5]];portConstraint=eastwest;" vertex="1" parent="A_5fuHN3O4RCUiWuTSh4-16">
          <mxGeometry y="26" width="140" height="26" as="geometry" />
        </mxCell>
        <mxCell id="A_5fuHN3O4RCUiWuTSh4-17" value="+ Calle: String" style="text;strokeColor=none;fillColor=none;align=left;verticalAlign=top;spacingLeft=4;spacingRight=4;overflow=hidden;rotatable=0;points=[[0,0.5],[1,0.5]];portConstraint=eastwest;" vertex="1" parent="A_5fuHN3O4RCUiWuTSh4-16">
          <mxGeometry y="52" width="140" height="26" as="geometry" />
        </mxCell>
        <mxCell id="A_5fuHN3O4RCUiWuTSh4-23" value="+ Colonia: String" style="text;strokeColor=none;fillColor=none;align=left;verticalAlign=top;spacingLeft=4;spacingRight=4;overflow=hidden;rotatable=0;points=[[0,0.5],[1,0.5]];portConstraint=eastwest;" vertex="1" parent="A_5fuHN3O4RCUiWuTSh4-16">
          <mxGeometry y="78" width="140" height="26" as="geometry" />
        </mxCell>
        <mxCell id="A_5fuHN3O4RCUiWuTSh4-28" value="+ Descripcion: String&#xa;" style="text;strokeColor=none;fillColor=none;align=left;verticalAlign=top;spacingLeft=4;spacingRight=4;overflow=hidden;rotatable=0;points=[[0,0.5],[1,0.5]];portConstraint=eastwest;" vertex="1" parent="A_5fuHN3O4RCUiWuTSh4-16">
          <mxGeometry y="104" width="140" height="26" as="geometry" />
        </mxCell>
        <mxCell id="A_5fuHN3O4RCUiWuTSh4-27" value="+ Estado: String" style="text;strokeColor=none;fillColor=none;align=left;verticalAlign=top;spacingLeft=4;spacingRight=4;overflow=hidden;rotatable=0;points=[[0,0.5],[1,0.5]];portConstraint=eastwest;" vertex="1" parent="A_5fuHN3O4RCUiWuTSh4-16">
          <mxGeometry y="130" width="140" height="26" as="geometry" />
        </mxCell>
        <mxCell id="A_5fuHN3O4RCUiWuTSh4-26" value="+ Horario: String" style="text;strokeColor=none;fillColor=none;align=left;verticalAlign=top;spacingLeft=4;spacingRight=4;overflow=hidden;rotatable=0;points=[[0,0.5],[1,0.5]];portConstraint=eastwest;" vertex="1" parent="A_5fuHN3O4RCUiWuTSh4-16">
          <mxGeometry y="156" width="140" height="26" as="geometry" />
        </mxCell>
        <mxCell id="A_5fuHN3O4RCUiWuTSh4-24" value="+ Municipio: String" style="text;strokeColor=none;fillColor=none;align=left;verticalAlign=top;spacingLeft=4;spacingRight=4;overflow=hidden;rotatable=0;points=[[0,0.5],[1,0.5]];portConstraint=eastwest;" vertex="1" parent="A_5fuHN3O4RCUiWuTSh4-16">
          <mxGeometry y="182" width="140" height="26" as="geometry" />
        </mxCell>
        <mxCell id="A_5fuHN3O4RCUiWuTSh4-22" value="+ Numero: String" style="text;strokeColor=none;fillColor=none;align=left;verticalAlign=top;spacingLeft=4;spacingRight=4;overflow=hidden;rotatable=0;points=[[0,0.5],[1,0.5]];portConstraint=eastwest;" vertex="1" parent="A_5fuHN3O4RCUiWuTSh4-16">
          <mxGeometry y="208" width="140" height="26" as="geometry" />
        </mxCell>
        <mxCell id="A_5fuHN3O4RCUiWuTSh4-21" value="+Postal: String" style="text;strokeColor=none;fillColor=none;align=left;verticalAlign=top;spacingLeft=4;spacingRight=4;overflow=hidden;rotatable=0;points=[[0,0.5],[1,0.5]];portConstraint=eastwest;" vertex="1" parent="A_5fuHN3O4RCUiWuTSh4-16">
          <mxGeometry y="234" width="140" height="26" as="geometry" />
        </mxCell>
        <mxCell id="A_5fuHN3O4RCUiWuTSh4-30" value="+ TipoServicio: String" style="text;strokeColor=none;fillColor=none;align=left;verticalAlign=top;spacingLeft=4;spacingRight=4;overflow=hidden;rotatable=0;points=[[0,0.5],[1,0.5]];portConstraint=eastwest;" vertex="1" parent="A_5fuHN3O4RCUiWuTSh4-16">
          <mxGeometry y="260" width="140" height="26" as="geometry" />
        </mxCell>
        <mxCell id="A_5fuHN3O4RCUiWuTSh4-29" value="+ userEmail: String" style="text;strokeColor=none;fillColor=none;align=left;verticalAlign=top;spacingLeft=4;spacingRight=4;overflow=hidden;rotatable=0;points=[[0,0.5],[1,0.5]];portConstraint=eastwest;" vertex="1" parent="A_5fuHN3O4RCUiWuTSh4-16">
          <mxGeometry y="286" width="140" height="26" as="geometry" />
        </mxCell>
        <mxCell id="A_5fuHN3O4RCUiWuTSh4-32" value="+ userName: String" style="text;strokeColor=none;fillColor=none;align=left;verticalAlign=top;spacingLeft=4;spacingRight=4;overflow=hidden;rotatable=0;points=[[0,0.5],[1,0.5]];portConstraint=eastwest;" vertex="1" parent="A_5fuHN3O4RCUiWuTSh4-16">
          <mxGeometry y="312" width="140" height="26" as="geometry" />
        </mxCell>
        <mxCell id="A_5fuHN3O4RCUiWuTSh4-31" value="+ userTel: String" style="text;strokeColor=none;fillColor=none;align=left;verticalAlign=top;spacingLeft=4;spacingRight=4;overflow=hidden;rotatable=0;points=[[0,0.5],[1,0.5]];portConstraint=eastwest;" vertex="1" parent="A_5fuHN3O4RCUiWuTSh4-16">
          <mxGeometry y="338" width="140" height="26" as="geometry" />
        </mxCell>
        <mxCell id="A_5fuHN3O4RCUiWuTSh4-35" value="Comentario" style="swimlane;fontStyle=0;childLayout=stackLayout;horizontal=1;startSize=26;fillColor=none;horizontalStack=0;resizeParent=1;resizeParentMax=0;resizeLast=0;collapsible=1;marginBottom=0;" vertex="1" parent="1">
          <mxGeometry x="274" y="230" width="140" height="104" as="geometry" />
        </mxCell>
        <mxCell id="A_5fuHN3O4RCUiWuTSh4-39" value="+ idServicio: String" style="text;strokeColor=none;fillColor=none;align=left;verticalAlign=top;spacingLeft=4;spacingRight=4;overflow=hidden;rotatable=0;points=[[0,0.5],[1,0.5]];portConstraint=eastwest;" vertex="1" parent="A_5fuHN3O4RCUiWuTSh4-35">
          <mxGeometry y="26" width="140" height="26" as="geometry" />
        </mxCell>
        <mxCell id="A_5fuHN3O4RCUiWuTSh4-36" value="+ Nombre: String" style="text;strokeColor=none;fillColor=none;align=left;verticalAlign=top;spacingLeft=4;spacingRight=4;overflow=hidden;rotatable=0;points=[[0,0.5],[1,0.5]];portConstraint=eastwest;" vertex="1" parent="A_5fuHN3O4RCUiWuTSh4-35">
          <mxGeometry y="52" width="140" height="26" as="geometry" />
        </mxCell>
        <mxCell id="A_5fuHN3O4RCUiWuTSh4-38" value="+ Comentario: String" style="text;strokeColor=none;fillColor=none;align=left;verticalAlign=top;spacingLeft=4;spacingRight=4;overflow=hidden;rotatable=0;points=[[0,0.5],[1,0.5]];portConstraint=eastwest;" vertex="1" parent="A_5fuHN3O4RCUiWuTSh4-35">
          <mxGeometry y="78" width="140" height="26" as="geometry" />
        </mxCell>
        <mxCell id="A_5fuHN3O4RCUiWuTSh4-40" style="edgeStyle=orthogonalEdgeStyle;rounded=0;orthogonalLoop=1;jettySize=auto;html=1;entryX=1;entryY=0.5;entryDx=0;entryDy=0;" edge="1" parent="1" source="A_5fuHN3O4RCUiWuTSh4-12" target="A_5fuHN3O4RCUiWuTSh4-30">
          <mxGeometry relative="1" as="geometry">
            <Array as="points">
              <mxPoint x="600" y="269" />
              <mxPoint x="600" y="503" />
            </Array>
          </mxGeometry>
        </mxCell>
        <mxCell id="A_5fuHN3O4RCUiWuTSh4-41" style="edgeStyle=orthogonalEdgeStyle;rounded=0;orthogonalLoop=1;jettySize=auto;html=1;entryX=1;entryY=0.5;entryDx=0;entryDy=0;" edge="1" parent="1" source="A_5fuHN3O4RCUiWuTSh4-25" target="A_5fuHN3O4RCUiWuTSh4-39">
          <mxGeometry relative="1" as="geometry" />
        </mxCell>
        <mxCell id="A_5fuHN3O4RCUiWuTSh4-42" style="edgeStyle=orthogonalEdgeStyle;rounded=0;orthogonalLoop=1;jettySize=auto;html=1;exitX=1;exitY=0.5;exitDx=0;exitDy=0;entryX=0;entryY=0.5;entryDx=0;entryDy=0;" edge="1" parent="1" source="A_5fuHN3O4RCUiWuTSh4-7" target="A_5fuHN3O4RCUiWuTSh4-32">
          <mxGeometry relative="1" as="geometry">
            <Array as="points">
              <mxPoint x="250" y="269" />
              <mxPoint x="250" y="555" />
            </Array>
          </mxGeometry>
        </mxCell>
        <mxCell id="A_5fuHN3O4RCUiWuTSh4-43" style="edgeStyle=orthogonalEdgeStyle;rounded=0;orthogonalLoop=1;jettySize=auto;html=1;entryX=0;entryY=0.5;entryDx=0;entryDy=0;" edge="1" parent="1" source="A_5fuHN3O4RCUiWuTSh4-6" target="A_5fuHN3O4RCUiWuTSh4-31">
          <mxGeometry relative="1" as="geometry">
            <Array as="points">
              <mxPoint x="240" y="321" />
              <mxPoint x="240" y="581" />
            </Array>
          </mxGeometry>
        </mxCell>
        <mxCell id="A_5fuHN3O4RCUiWuTSh4-44" style="edgeStyle=orthogonalEdgeStyle;rounded=0;orthogonalLoop=1;jettySize=auto;html=1;entryX=0;entryY=0.5;entryDx=0;entryDy=0;" edge="1" parent="1" source="A_5fuHN3O4RCUiWuTSh4-5" target="A_5fuHN3O4RCUiWuTSh4-29">
          <mxGeometry relative="1" as="geometry">
            <Array as="points">
              <mxPoint x="260" y="295" />
              <mxPoint x="260" y="529" />
            </Array>
          </mxGeometry>
        </mxCell>
      </root>
    </mxGraphModel>
  </diagram>
</mxfile>
